<svg data-v-fde0c5aa="" xmlns="http://www.w3.org/2000/svg" viewBox="0 0 300 300" class="iconLeft"><!----><defs data-v-fde0c5aa=""><!----></defs><rect data-v-fde0c5aa="" fill="transparent" x="0" y="0" width="300px" height="300px" class="logo-background-square"></rect><defs data-v-fde0c5aa=""><!----></defs><g data-v-fde0c5aa="" id="44eaf59e-6d5b-4c11-b56a-2b95a7580226" fill="#000000" transform="matrix(1.5947804264167504,0,0,1.5947804264167504,74.65461879621823,140.51903009119022)"><path d="M12.02 4.45L12.02 4.45L12.02 4.45Q12.02 5.15 11.82 5.75L11.82 5.75L11.82 5.75Q11.61 6.34 11.16 6.76L11.16 6.76L11.16 6.76Q10.71 7.19 9.98 7.43L9.98 7.43L9.98 7.43Q9.26 7.67 8.22 7.67L8.22 7.67L4.01 7.67L4.01 10.64L1.47 10.64L1.47 1.24L8.22 1.24L8.22 1.24Q9.26 1.24 9.98 1.48L9.98 1.48L9.98 1.48Q10.71 1.72 11.16 2.14L11.16 2.14L11.16 2.14Q11.61 2.57 11.82 3.16L11.82 3.16L11.82 3.16Q12.02 3.75 12.02 4.45ZM9.46 4.49L9.46 4.49L9.46 4.49Q9.46 4.16 9.37 3.93L9.37 3.93L9.37 3.93Q9.28 3.69 9.06 3.54L9.06 3.54L9.06 3.54Q8.85 3.39 8.51 3.32L8.51 3.32L8.51 3.32Q8.17 3.25 7.67 3.25L7.67 3.25L4.01 3.25L4.01 5.67L7.67 5.67L7.67 5.67Q8.17 5.67 8.51 5.61L8.51 5.61L8.51 5.61Q8.85 5.55 9.06 5.41L9.06 5.41L9.06 5.41Q9.28 5.27 9.37 5.04L9.37 5.04L9.37 5.04Q9.46 4.82 9.46 4.49ZM16.66 1.24L16.66 6.62L16.66 6.62Q16.66 7.21 16.77 7.58L16.77 7.58L16.77 7.58Q16.88 7.95 17.12 8.17L17.12 8.17L17.12 8.17Q17.37 8.39 17.76 8.47L17.76 8.47L17.76 8.47Q18.16 8.55 18.73 8.55L18.73 8.55L23.54 8.55L23.54 10.64L18.21 10.64L18.21 10.64Q17.10 10.64 16.33 10.46L16.33 10.46L16.33 10.46Q15.55 10.27 15.06 9.90L15.06 9.90L15.06 9.90Q14.57 9.52 14.35 8.93L14.35 8.93L14.35 8.93Q14.12 8.35 14.12 7.55L14.12 7.55L14.12 1.24L16.66 1.24ZM36.07 10.64L33.54 10.64L33.54 9.71L33.54 9.71Q33.05 9.98 32.49 10.19L32.49 10.19L32.49 10.19Q31.94 10.39 31.34 10.53L31.34 10.53L31.34 10.53Q30.73 10.68 30.10 10.75L30.10 10.75L30.10 10.75Q29.46 10.82 28.81 10.82L28.81 10.82L28.81 10.82Q28.05 10.82 27.34 10.68L27.34 10.68L27.34 10.68Q26.63 10.53 26.09 10.21L26.09 10.21L26.09 10.21Q25.54 9.89 25.21 9.37L25.21 9.37L25.21 9.37Q24.88 8.85 24.88 8.10L24.88 8.10L24.88 8.10Q24.88 7.15 25.40 6.52L25.40 6.52L25.40 6.52Q25.92 5.89 26.98 5.48L26.98 5.48L26.98 5.48Q28.05 5.08 29.68 4.86L29.68 4.86L29.68 4.86Q31.31 4.64 33.54 4.52L33.54 4.52L33.54 4.32L33.54 4.32Q33.54 4.09 33.41 3.86L33.41 3.86L33.41 3.86Q33.29 3.63 32.97 3.46L32.97 3.46L32.97 3.46Q32.64 3.28 32.08 3.17L32.08 3.17L32.08 3.17Q31.51 3.06 30.64 3.06L30.64 3.06L30.64 3.06Q29.95 3.06 29.27 3.13L29.27 3.13L29.27 3.13Q28.60 3.21 27.98 3.33L27.98 3.33L27.98 3.33Q27.35 3.45 26.79 3.62L26.79 3.62L26.79 3.62Q26.23 3.78 25.77 3.96L25.77 3.96L25.77 1.70L25.77 1.70Q26.25 1.58 26.84 1.46L26.84 1.46L26.84 1.46Q27.44 1.35 28.08 1.26L28.08 1.26L28.08 1.26Q28.72 1.18 29.38 1.12L29.38 1.12L29.38 1.12Q30.04 1.07 30.64 1.07L30.64 1.07L30.64 1.07Q31.82 1.07 32.82 1.27L32.82 1.27L32.82 1.27Q33.82 1.46 34.54 1.87L34.54 1.87L34.54 1.87Q35.26 2.28 35.67 2.91L35.67 2.91L35.67 2.91Q36.07 3.54 36.07 4.41L36.07 4.41L36.07 10.64ZM33.54 7.59L33.54 6.35L33.54 6.35Q32.07 6.41 31.05 6.51L31.05 6.51L31.05 6.51Q30.03 6.61 29.35 6.75L29.35 6.75L29.35 6.75Q28.68 6.88 28.29 7.04L28.29 7.04L28.29 7.04Q27.90 7.20 27.71 7.36L27.71 7.36L27.71 7.36Q27.52 7.53 27.48 7.69L27.48 7.69L27.48 7.69Q27.43 7.85 27.43 7.99L27.43 7.99L27.43 7.99Q27.43 8.16 27.52 8.31L27.52 8.31L27.52 8.31Q27.61 8.46 27.83 8.58L27.83 8.58L27.83 8.58Q28.05 8.70 28.42 8.76L28.42 8.76L28.42 8.76Q28.79 8.83 29.35 8.83L29.35 8.83L29.35 8.83Q29.98 8.83 30.57 8.74L30.57 8.74L30.57 8.74Q31.17 8.64 31.70 8.47L31.70 8.47L31.70 8.47Q32.23 8.31 32.70 8.08L32.70 8.08L32.70 8.08Q33.17 7.85 33.54 7.59L33.54 7.59ZM50.13 1.24L50.13 7.03L50.13 7.03Q50.13 7.94 49.68 8.66L49.68 8.66L49.68 8.66Q49.23 9.38 48.40 9.87L48.40 9.87L48.40 9.87Q47.56 10.37 46.39 10.63L46.39 10.63L46.39 10.63Q45.21 10.89 43.74 10.89L43.74 10.89L43.74 10.89Q43.10 10.89 42.39 10.84L42.39 10.84L42.39 10.84Q41.69 10.79 41.01 10.69L41.01 10.69L41.01 10.69Q40.34 10.60 39.75 10.48L39.75 10.48L39.75 10.48Q39.16 10.36 38.76 10.22L38.76 10.22L38.76 7.99L38.76 7.99Q39.20 8.18 39.73 8.34L39.73 8.34L39.73 8.34Q40.27 8.50 40.90 8.63L40.90 8.63L40.90 8.63Q41.53 8.76 42.25 8.83L42.25 8.83L42.25 8.83Q42.97 8.90 43.78 8.90L43.78 8.90L43.78 8.90Q44.54 8.90 45.11 8.81L45.11 8.81L45.11 8.81Q45.69 8.72 46.12 8.57L46.12 8.57L46.12 8.57Q46.54 8.42 46.82 8.23L46.82 8.23L46.82 8.23Q47.10 8.03 47.27 7.82L47.27 7.82L47.27 7.82Q47.44 7.62 47.51 7.41L47.51 7.41L47.51 7.41Q47.58 7.21 47.58 7.03L47.58 7.03L47.58 6.20L47.58 6.20Q46.89 6.71 45.92 7.04L45.92 7.04L45.92 7.04Q44.96 7.38 43.73 7.38L43.73 7.38L43.73 7.38Q42.30 7.38 41.35 7.10L41.35 7.10L41.35 7.10Q40.39 6.82 39.82 6.30L39.82 6.30L39.82 6.30Q39.25 5.78 39.00 5.02L39.00 5.02L39.00 5.02Q38.76 4.27 38.76 3.33L38.76 3.33L38.76 1.24L41.31 1.24L41.31 3.08L41.31 3.08Q41.31 3.63 41.46 4.06L41.46 4.06L41.46 4.06Q41.60 4.49 41.92 4.78L41.92 4.78L41.92 4.78Q42.24 5.07 42.75 5.22L42.75 5.22L42.75 5.22Q43.25 5.37 43.97 5.37L43.97 5.37L43.97 5.37Q44.58 5.37 45.12 5.22L45.12 5.22L45.12 5.22Q45.66 5.07 46.12 4.83L46.12 4.83L46.12 4.83Q46.58 4.58 46.95 4.27L46.95 4.27L46.95 4.27Q47.32 3.95 47.58 3.62L47.58 3.62L47.58 1.24L50.13 1.24ZM63.54 7.98L63.54 10.17L63.54 10.17Q62.38 10.55 61.23 10.72L61.23 10.72L61.23 10.72Q60.08 10.89 58.88 10.89L58.88 10.89L58.88 10.89Q57.34 10.89 56.14 10.56L56.14 10.56L56.14 10.56Q54.94 10.23 54.12 9.60L54.12 9.60L54.12 9.60Q53.30 8.97 52.87 8.06L52.87 8.06L52.87 8.06Q52.44 7.15 52.44 6.00L52.44 6.00L52.44 6.00Q52.44 4.94 52.87 4.02L52.87 4.02L52.87 4.02Q53.31 3.11 54.10 2.44L54.10 2.44L54.10 2.44Q54.90 1.76 56.03 1.38L56.03 1.38L56.03 1.38Q57.16 1.00 58.54 1.00L58.54 1.00L58.54 1.00Q59.82 1.00 60.88 1.35L60.88 1.35L60.88 1.35Q61.95 1.70 62.71 2.37L62.71 2.37L62.71 2.37Q63.47 3.05 63.89 4.04L63.89 4.04L63.89 4.04Q64.31 5.03 64.31 6.32L64.31 6.32L64.31 6.95L55.06 6.95L55.06 6.95Q55.18 7.40 55.46 7.77L55.46 7.77L55.46 7.77Q55.75 8.13 56.23 8.39L56.23 8.39L56.23 8.39Q56.72 8.65 57.43 8.80L57.43 8.80L57.43 8.80Q58.13 8.94 59.12 8.94L59.12 8.94L59.12 8.94Q59.81 8.94 60.48 8.86L60.48 8.86L60.48 8.86Q61.15 8.77 61.74 8.63L61.74 8.63L61.74 8.63Q62.32 8.49 62.78 8.32L62.78 8.32L62.78 8.32Q63.25 8.15 63.54 7.98L63.54 7.98ZM55.06 5.09L61.79 5.09L61.79 5.09Q61.76 4.74 61.58 4.37L61.58 4.37L61.58 4.37Q61.41 4.00 61.03 3.70L61.03 3.70L61.03 3.70Q60.66 3.40 60.05 3.20L60.05 3.20L60.05 3.20Q59.44 3.01 58.53 3.01L58.53 3.01L58.53 3.01Q57.67 3.01 57.05 3.22L57.05 3.22L57.05 3.22Q56.43 3.43 56.01 3.75L56.01 3.75L56.01 3.75Q55.59 4.06 55.36 4.42L55.36 4.42L55.36 4.42Q55.13 4.79 55.06 5.09L55.06 5.09ZM75.26 3.37L75.26 3.37L75.26 3.37Q75.15 3.34 74.96 3.28L74.96 3.28L74.96 3.28Q74.76 3.22 74.50 3.16L74.50 3.16L74.50 3.16Q74.25 3.10 73.93 3.06L73.93 3.06L73.93 3.06Q73.62 3.02 73.29 3.02L73.29 3.02L73.29 3.02Q72.61 3.02 72.02 3.19L72.02 3.19L72.02 3.19Q71.43 3.36 70.92 3.63L70.92 3.63L70.92 3.63Q70.40 3.91 69.96 4.26L69.96 4.26L69.96 4.26Q69.52 4.61 69.15 4.98L69.15 4.98L69.15 10.64L66.62 10.64L66.62 1.24L69.15 1.24L69.15 2.77L69.15 2.77Q69.61 2.43 70.09 2.11L70.09 2.11L70.09 2.11Q70.57 1.79 71.10 1.54L71.10 1.54L71.10 1.54Q71.62 1.30 72.20 1.15L72.20 1.15L72.20 1.15Q72.78 1.00 73.43 1.00L73.43 1.00L73.43 1.00Q73.68 1.00 73.93 1.03L73.93 1.03L73.93 1.03Q74.19 1.05 74.43 1.09L74.43 1.09L74.43 1.09Q74.68 1.12 74.89 1.16L74.89 1.16L74.89 1.16Q75.10 1.20 75.26 1.24L75.26 1.24L75.26 3.37ZM87.58 8.05L87.58 8.05L87.58 8.05Q87.58 8.59 87.43 9.00L87.43 9.00L87.43 9.00Q87.29 9.40 87.03 9.69L87.03 9.69L87.03 9.69Q86.78 9.98 86.42 10.16L86.42 10.16L86.42 10.16Q86.06 10.34 85.62 10.45L85.62 10.45L85.62 10.45Q85.19 10.55 84.70 10.60L84.70 10.60L84.70 10.60Q84.21 10.64 83.68 10.64L83.68 10.64L76.86 10.64L76.86 1.24L83.56 1.24L83.56 1.24Q83.96 1.24 84.37 1.28L84.37 1.28L84.37 1.28Q84.77 1.31 85.14 1.40L85.14 1.40L85.14 1.40Q85.51 1.50 85.83 1.66L85.83 1.66L85.83 1.66Q86.15 1.83 86.38 2.09L86.38 2.09L86.38 2.09Q86.62 2.36 86.75 2.73L86.75 2.73L86.75 2.73Q86.88 3.11 86.88 3.62L86.88 3.62L86.88 3.62Q86.88 4.54 86.43 5.08L86.43 5.08L86.43 5.08Q85.98 5.61 85.01 5.79L85.01 5.79L85.01 5.79Q85.70 5.84 86.18 6.00L86.18 6.00L86.18 6.00Q86.67 6.16 86.98 6.44L86.98 6.44L86.98 6.44Q87.29 6.71 87.43 7.11L87.43 7.11L87.43 7.11Q87.58 7.51 87.58 8.05ZM84.41 4.03L84.41 4.03L84.41 4.03Q84.41 3.85 84.36 3.69L84.36 3.69L84.36 3.69Q84.30 3.53 84.16 3.40L84.16 3.40L84.16 3.40Q84.01 3.28 83.77 3.21L83.77 3.21L83.77 3.21Q83.52 3.13 83.14 3.13L83.14 3.13L79.40 3.13L79.40 4.89L83.14 4.89L83.14 4.89Q83.52 4.89 83.77 4.83L83.77 4.83L83.77 4.83Q84.01 4.76 84.16 4.64L84.16 4.64L84.16 4.64Q84.30 4.53 84.36 4.36L84.36 4.36L84.36 4.36Q84.41 4.20 84.41 4.03ZM85.00 7.75L85.00 7.75L85.00 7.75Q85.00 7.43 84.89 7.24L84.89 7.24L84.89 7.24Q84.78 7.04 84.55 6.94L84.55 6.94L84.55 6.94Q84.31 6.83 83.95 6.79L83.95 6.79L83.95 6.79Q83.58 6.76 83.06 6.76L83.06 6.76L79.40 6.76L79.40 8.75L83.06 8.75L83.06 8.75Q83.58 8.75 83.95 8.72L83.95 8.72L83.95 8.72Q84.31 8.68 84.55 8.57L84.55 8.57L84.55 8.57Q84.78 8.46 84.89 8.27L84.89 8.27L84.89 8.27Q85.00 8.07 85.00 7.75ZM92.42 1.24L92.42 6.62L92.42 6.62Q92.42 7.21 92.53 7.58L92.53 7.58L92.53 7.58Q92.64 7.95 92.89 8.17L92.89 8.17L92.89 8.17Q93.13 8.39 93.53 8.47L93.53 8.47L93.53 8.47Q93.92 8.55 94.49 8.55L94.49 8.55L99.31 8.55L99.31 10.64L93.97 10.64L93.97 10.64Q92.87 10.64 92.09 10.46L92.09 10.46L92.09 10.46Q91.31 10.27 90.82 9.90L90.82 9.90L90.82 9.90Q90.33 9.52 90.11 8.93L90.11 8.93L90.11 8.93Q89.89 8.35 89.89 7.55L89.89 7.55L89.89 1.24L92.42 1.24ZM103.87 10.64L101.34 10.64L101.34 1.24L103.87 1.24L103.87 10.64ZM116.22 10.64L106.26 10.64L106.26 8.67L112.44 3.30L106.45 3.30L106.45 1.24L116.08 1.24L116.08 2.97L109.63 8.58L116.22 8.58L116.22 10.64Z"></path></g><defs data-v-fde0c5aa=""><linearGradient data-v-fde0c5aa="" gradientTransform="rotate(25)" id="122e172d-41f7-4926-a86f-a8c647041659" x1="0%" y1="0%" x2="100%" y2="0%"><stop data-v-fde0c5aa="" offset="0%" stop-color="#E90DDA" stop-opacity="1"></stop><stop data-v-fde0c5aa="" offset="100%" stop-color="#15CFF1" stop-opacity="1"></stop></linearGradient></defs><g data-v-fde0c5aa="" id="10ff8bf9-e1a5-4855-bb7d-182b04da0b84" stroke="none" fill="url(#122e172d-41f7-4926-a86f-a8c647041659)" transform="matrix(0.7497328124673387,0,0,0.7497328124673387,40.00374866432767,138.0042750898977)"><path d="M16 23.787L8.102 16 16 8.213 23.898 16 16 23.787zM9.525 16L16 22.383 22.475 16 16 9.617 9.525 16z"></path><path d="M15.915 31.778L-.005 16.084 16.085.222l15.92 15.694-16.09 15.862zM1.419 16.084l14.496 14.29 14.666-14.458-14.496-14.29L1.419 16.084z"></path><path d="M15.5.924h1v30.152h-1z"></path></g><!----></svg>